<svg xmlns="http://www.w3.org/2000/svg" xmlns:xlink="http://www.w3.org/1999/xlink" version="1.1" x="0px" y="0px" fill="#365652" viewBox="0 0 100 100" style="enable-background:new 0 0 100 100;" xml:space="preserve"><path d="M25.2,67.5l0.4,0.5l0.6-0.1c0.4-0.1,10.1-2.1,17.5-5.1c7.3-3,15-3.6,17.2-3.7c0.5,0,1-0.2,1.4-0.4c1.3-0.8,6.2-3.2,14.7-2.8  c4.7,0.2,14.8-0.1,16.2-0.2c0.4,0,0.7-0.2,0.9-0.6c0.2-0.3,0.2-0.7,0-1.1l-1.3-2.2c-0.1-0.1-0.1-0.3-0.3-0.4L70.5,30l-0.4,0  c-0.1,0-9.8,0.1-16.9-0.4c-8.4-0.5-11.4,3.8-12.1,4.8c-1.6-0.9-9.6-4.8-19-0.6C16.3,36.4,9.9,37.1,9.1,37c0,0-1.3-0.3-1.3,1.2  c0,0.5,0,3.5,0,5.5v0.3L8,44.2C9.4,46.3,24.6,66.7,25.2,67.5z M43,61c-6.2,2.5-14.3,4.4-16.5,4.9c-2.3-3.1-14.6-19.7-16.6-22.5  c0-0.7,0-1.5,0-2.3l16.6,22.6l0.4,0c0.1,0,0.7,0.1,1.8,0.1c3,0,9.4-0.5,15.7-4.1c5-2.9,9.6-2.9,13.4-2.2C54.2,57.8,48.5,58.8,43,61z   M77,54c-7.5-0.4-12.5,1.5-14.8,2.6c0,0,0,0,0-0.1c0.1-0.8,0.7-1.4,1.2-1.8c1.8-1.5,6.3-3.1,12.9-2.3c4.6,0.5,12.9,1,15.1,1.1  l0.2,0.4C88.4,54,80.8,54.2,77,54z M42.7,35.6c0,0,2.3-4.5,10.3-4c6.4,0.4,14.8,0.4,16.7,0.4l19.9,19.4c-3.4-0.2-9.4-0.6-13.1-1  c-6-0.7-11.5,0.4-14.4,2.7c-0.6,0.5-1.1,1.1-1.4,1.6c-9.7-9.3-16.6-17.1-18.2-18.9L42.7,35.6z M22.8,35.6c8.7-3.8,16.3,0,17.4,0.6  c1,1.2,8.7,9.9,18.6,19.4c-4.3-0.9-9.7-1.1-15.5,2.3c-6.8,4-14.1,3.9-15.9,3.8L10.6,38.8C13.4,38.6,18.4,37.6,22.8,35.6z"/><path d="M94.1,56.6l-29.7,1.7c-0.6,0-1.1,0.4-1.3,1c-0.3,0.8-1,1.4-1.7,1.6C61,61,60.2,61,59.5,60.3c-0.5-0.5-1.2-0.7-1.9-0.5  L24.3,69.9L7,44.9c-0.3-0.4-0.9-0.6-1.4-0.2C5.2,45,5,45.6,5.4,46l18.2,26.1l34.6-10.5c1,1,2.4,1.5,3.7,1.2c1.3-0.3,2.5-1.3,3-2.6  l29.4-1.7c0.5,0,1-0.5,0.9-1C95.2,57,94.7,56.6,94.1,56.6z" /></svg>
