<svg xmlns="http://www.w3.org/2000/svg" xmlns:xlink="http://www.w3.org/1999/xlink" version="1.1" x="0px" y="0px" viewBox="0 0 100 100" fill="#ffffff" style="enable-background:new 0 0 100 100;" xml:space="preserve"><path d="M81.4,24.6l-14-14C67,10.2,66.5,10,66,10H20c-1.1,0-2,0.9-2,2v76c0,1.1,0.9,2,2,2h60c1.1,0,2-0.9,2-2V26  C82,25.5,81.8,25,81.4,24.6z M68,16.8l7.2,7.2H68V16.8z M22,86V14h42v12c0,1.1,0.9,2,2,2h12v58H22z M29,48h16c0.6,0,1-0.4,1-1V21  c0-0.6-0.4-1-1-1H29c-0.6,0-1,0.4-1,1v26C28,47.6,28.4,48,29,48z M30,22h14v24H30V22z M54,23c0-0.5,0.5-1,1-1h7v2h-7  C54.5,24,54,23.5,54,23z M50,27c0-0.5,0.5-1,1-1h11v2H51C50.5,28,50,27.5,50,27z M72,31c0,0.6-0.4,1-1,1h-4c-0.6,0-1-0.4-1-1  s0.4-1,1-1h4C71.6,30,72,30.4,72,31z M50,31c0-0.6,0.4-1,1-1h12c0.6,0,1,0.4,1,1s-0.4,1-1,1H51C50.4,32,50,31.6,50,31z M72,35  c0,0.6-0.4,1-1,1H59c-0.6,0-1-0.4-1-1s0.4-1,1-1h12C71.6,34,72,34.4,72,35z M50,35c0-0.6,0.4-1,1-1h4c0.6,0,1,0.4,1,1s-0.4,1-1,1h-4  C50.4,36,50,35.6,50,35z M72,39c0,0.6-0.4,1-1,1H51c-0.6,0-1-0.4-1-1s0.4-1,1-1h20C71.6,38,72,38.4,72,39z M72,43c0,0.6-0.4,1-1,1  h-4c-0.6,0-1-0.4-1-1s0.4-1,1-1h4C71.6,42,72,42.4,72,43z M50,43c0-0.6,0.4-1,1-1h12c0.6,0,1,0.4,1,1s-0.4,1-1,1H51  C50.4,44,50,43.6,50,43z M72,47c0,0.6-0.4,1-1,1H51c-0.6,0-1-0.4-1-1s0.4-1,1-1h20C71.6,46,72,46.4,72,47z M72,55c0,0.6-0.4,1-1,1  H33c-0.6,0-1-0.4-1-1s0.4-1,1-1h38C71.6,54,72,54.4,72,55z M72,59c0,0.6-0.4,1-1,1h-8c-0.6,0-1-0.4-1-1s0.4-1,1-1h8  C71.6,58,72,58.4,72,59z M28,59c0-0.6,0.4-1,1-1h30c0.6,0,1,0.4,1,1s-0.4,1-1,1H29C28.4,60,28,59.6,28,59z M72,63c0,0.6-0.4,1-1,1  H47c-0.6,0-1-0.4-1-1s0.4-1,1-1h24C71.6,62,72,62.4,72,63z M28,63c0-0.6,0.4-1,1-1h14c0.6,0,1,0.4,1,1s-0.4,1-1,1H29  C28.4,64,28,63.6,28,63z M72,67c0,0.6-0.4,1-1,1h-8c-0.6,0-1-0.4-1-1s0.4-1,1-1h8C71.6,66,72,66.4,72,67z M28,67c0-0.6,0.4-1,1-1h30  c0.6,0,1,0.4,1,1s-0.4,1-1,1H29C28.4,68,28,67.6,28,67z M72,71c0,0.6-0.4,1-1,1H47c-0.6,0-1-0.4-1-1s0.4-1,1-1h24  C71.6,70,72,70.4,72,71z M28,71c0-0.6,0.4-1,1-1h14c0.6,0,1,0.4,1,1s-0.4,1-1,1H29C28.4,72,28,71.6,28,71z M72,75c0,0.6-0.4,1-1,1  H55c-0.6,0-1-0.4-1-1s0.4-1,1-1h16C71.6,74,72,74.4,72,75z M28,75c0-0.6,0.4-1,1-1h22c0.6,0,1,0.4,1,1s-0.4,1-1,1H29  C28.4,76,28,75.6,28,75z M72,79c0,0.6-0.4,1-1,1H29c-0.6,0-1-0.4-1-1s0.4-1,1-1h42C71.6,78,72,78.4,72,79z"/></svg>
