<svg xmlns="http://www.w3.org/2000/svg" xmlns:xlink="http://www.w3.org/1999/xlink" version="1.1" x="0px" y="0px" viewBox="0 0 100 100" style="enable-background:new 0 0 100 100;" fill="#ffffff" xml:space="preserve"><g><path d="M50,8.1C26.9,8.1,8.1,26.9,8.1,50S26.9,91.9,50,91.9S91.9,73.1,91.9,50S73.1,8.1,50,8.1z M25.1,81.1   c-6.7-5.4-11.7-12.9-13.8-21.5l27.4-6.8c0.6,2.5,2.1,4.7,4.1,6.3L25.1,81.1z M50,59.6c-5.3,0-9.6-4.3-9.6-9.6s4.3-9.6,9.6-9.6   s9.6,4.3,9.6,9.6S55.3,59.6,50,59.6z M89.8,47.6l-28.2,1.8c0-0.6-0.1-1.2-0.2-1.7l27.6-6C89.4,43.7,89.7,45.6,89.8,47.6z    M60.7,45.6c-1.1-2.8-3.3-5-6-6.2l11.5-25.8c9.3,4.2,16.8,11.8,20.7,21.3L60.7,45.6z"/><circle cx="50" cy="50" r="6.3"/></g></svg>
