<svg xmlns="http://www.w3.org/2000/svg" xmlns:xlink="http://www.w3.org/1999/xlink" xmlns:sketch="http://www.bohemiancoding.com/sketch/ns" viewBox="0 0 30 30" version="1.1" x="0px" y="0px"><g stroke="none" stroke-width="1" fill="none" fill-rule="evenodd" sketch:type="MSPage"><g sketch:type="MSArtboardGroup" transform="translate(-270.000000, -45.000000)" fill="#000000"><path d="M280.5,77 L280.5,49 L284,43 L287.5,49 L287.5,77 L286.5,78 L281.5,78 L280.5,77 Z M281.5,76.6000004 L281.5,74 L286.5,74 L286.5,76.6000004 L286.100006,77 L281.899994,77 L281.5,76.6000004 Z M281.5,50 L282.5,50 L282.5,73 L281.5,73 L281.5,50 Z M283.5,50 L284.5,50 L284.5,73 L283.5,73 L283.5,50 Z M285.5,50 L286.5,50 L286.5,73 L285.5,73 L285.5,50 Z M284,44.97 L286.350006,49 L281.649994,49 L284,44.97 Z" sketch:type="MSShapeGroup" transform="translate(284.000000, 60.500000) scale(1, -1) rotate(-45.000000) translate(-284.000000, -60.500000) "/></g></g></svg>
