<svg xmlns="http://www.w3.org/2000/svg" xmlns:xlink="http://www.w3.org/1999/xlink" version="1.1" x="0px" y="0px" viewBox="0 0 48 48" style="enable-background:new 0 0 48 48;" xml:space="preserve"><g><path d="M43,45.5H5c-0.552,0-1-0.448-1-1v-3.771c0-2.92,1.811-5.525,4.613-6.638c3.171-1.258,7.552-4.362,9.463-8.974l1.848,0.766   c-2.151,5.188-7.04,8.665-10.574,10.067C7.315,36.758,6,38.633,6,40.729V43.5h36v-2.771c0-2.096-1.314-3.971-3.35-4.778   c-3.534-1.402-8.424-4.88-10.574-10.067l1.848-0.766c1.912,4.609,6.292,7.715,9.463,8.974C42.189,35.203,44,37.809,44,40.729V44.5   C44,45.052,43.552,45.5,43,45.5z"/><path d="M24,28.5c-6.296,0-11-7.919-11-15c0-6.682,4.318-11,11-11c6.682,0,11,4.318,11,11C35,20.581,30.296,28.5,24,28.5z M24,4.5   c-4.351,0-9,2.364-9,9c0,5.888,4.015,13,9,13c4.984,0,9-7.112,9-13C33,6.864,28.352,4.5,24,4.5z"/></g></svg>
