<svg xmlns="http://www.w3.org/2000/svg" xmlns:xlink="http://www.w3.org/1999/xlink" version="1.1" x="0px" y="0px" viewBox="0 0 48 48" style="enable-background:new 0 0 48 48;" xml:space="preserve"><g><g><path d="M27,48c-0.262,0-0.518-0.104-0.707-0.293c-0.257-0.257-0.354-0.632-0.255-0.982l2-7c0.047-0.162,0.135-0.312,0.255-0.432    l13-13c0.391-0.391,1.023-0.391,1.414,0l5,5c0.391,0.391,0.391,1.023,0,1.414l-13,13c-0.12,0.12-0.27,0.208-0.434,0.254l-7,2    C27.186,47.986,27.092,48,27,48z M29.891,40.523l-1.435,5.021l5.021-1.435L45.586,32L42,28.414L29.891,40.523z"/><rect x="36.961" y="32.5" transform="matrix(-0.7071 -0.7071 0.7071 -0.7071 45.4431 85.8231)" width="7.071" height="2"/><path d="M34,46c-0.256,0-0.512-0.098-0.707-0.293l-5-5c-0.391-0.391-0.391-1.023,0-1.414s1.023-0.391,1.414,0l5,5    c0.391,0.391,0.391,1.023,0,1.414C34.512,45.902,34.256,46,34,46z"/></g><path d="M29,43H1c-0.553,0-1-0.448-1-1v-3.771c0-2.92,1.811-5.525,4.611-6.638c2.533-1.004,7.375-4.049,9.465-9.088l1.848,0.766   c-2.191,5.29-7.066,8.79-10.572,10.182C3.316,34.259,2,36.134,2,38.229V41h27V43L29,43z"/><path d="M35,34c-0.123,0-0.248-0.023-0.369-0.071c-2.951-1.171-8.197-4.977-10.555-10.661c-0.213-0.51,0.029-1.095,0.541-1.307   c0.509-0.21,1.094,0.03,1.307,0.541c2.104,5.075,6.91,8.563,9.445,9.566c0.513,0.205,0.764,0.785,0.561,1.299   C35.773,33.761,35.396,34,35,34z"/><path d="M20,26c-6.296,0-11-7.919-11-15C9,4.318,13.316,0,20,0s11,4.318,11,11C31,18.081,26.296,26,20,26z M20,2   c-4.352,0-9,2.364-9,9c0,5.888,4.016,13,9,13s9-7.112,9-13C29,4.364,24.352,2,20,2z"/></g></svg>
