<svg xmlns="http://www.w3.org/2000/svg" xmlns:xlink="http://www.w3.org/1999/xlink" version="1.1" x="0px" y="0px" viewBox="0 0 48 48" style="enable-background:new 0 0 48 48;" xml:space="preserve"><g><path d="M33.964,42.036c-0.256,0-0.512-0.099-0.707-0.293c-0.391-0.392-0.391-1.023,0-1.414l7.071-7.071   c0.391-0.391,1.023-0.391,1.414,0s0.391,1.023,0,1.414l-7.071,7.071C34.477,41.938,34.221,42.036,33.964,42.036z"/><path d="M41.035,42.036c-0.256,0-0.512-0.099-0.707-0.293l-7.07-7.071c-0.391-0.391-0.391-1.023,0-1.414s1.023-0.391,1.414,0   l7.07,7.071c0.391,0.391,0.391,1.024,0,1.414C41.547,41.938,41.291,42.036,41.035,42.036z"/><path d="M37.5,47.5c-5.514,0-10-4.486-10-10s4.486-10,10-10s10,4.486,10,10S43.014,47.5,37.5,47.5z M37.5,29.5   c-4.411,0-8,3.589-8,8s3.589,8,8,8s8-3.589,8-8S41.911,29.5,37.5,29.5z"/><path d="M29.5,43.5h-28c-0.552,0-1-0.448-1-1v-3.771c0-2.92,1.811-5.525,4.613-6.638c2.532-1.004,7.375-4.049,9.463-9.088   l1.848,0.766c-2.192,5.288-7.066,8.79-10.574,10.182c-2.035,0.808-3.35,2.683-3.35,4.777V41.5h27V43.5z"/><path d="M29.859,31.268c-2.049-1.707-4.072-4.58-5.283-7.5l1.848-0.766c1.094,2.639,2.901,5.216,4.717,6.729L29.859,31.268z"/><path d="M20.5,26.5c-6.296,0-11-7.919-11-15c0-6.682,4.318-11,11-11c6.682,0,11,4.318,11,11C31.5,18.581,26.796,26.5,20.5,26.5z    M20.5,2.5c-4.351,0-9,2.364-9,9c0,5.888,4.015,13,9,13c4.984,0,9-7.112,9-13C29.5,4.864,24.852,2.5,20.5,2.5z"/></g></svg>
