<svg xmlns="http://www.w3.org/2000/svg" xmlns:xlink="http://www.w3.org/1999/xlink" version="1.1" x="0px" y="0px" viewBox="0 0 48 48" style="enable-background:new 0 0 48 48;" xml:space="preserve"><g><path d="M37,42c-2.206,0-4-1.794-4-4s1.794-4,4-4s4,1.794,4,4S39.206,42,37,42z M37,36c-1.104,0-2,0.896-2,2s0.896,2,2,2   s2-0.896,2-2S38.104,36,37,36z"/><path d="M39,48h-4c-0.553,0-1-0.448-1-1v-1.604c-0.6-0.265-1.175-0.619-1.736-1.071l-1.195,0.753   c-0.229,0.145-0.508,0.191-0.772,0.125c-0.264-0.064-0.489-0.235-0.626-0.471l-1.998-3.465c-0.275-0.479-0.111-1.09,0.365-1.365   l1.369-0.793c-0.057-0.375-0.084-0.743-0.084-1.108c0-0.375,0.025-0.744,0.074-1.103l-1.395-0.797   c-0.479-0.272-0.646-0.881-0.374-1.359l1.958-3.465c0.133-0.235,0.354-0.406,0.616-0.476s0.539-0.028,0.771,0.111l1.281,0.772   c0.563-0.455,1.141-0.813,1.746-1.08V29c0-0.552,0.447-1,1-1h4c0.553,0,1,0.448,1,1v1.59c0.6,0.237,1.384,0.608,2.092,1.13   l1.564-0.835c0.473-0.254,1.066-0.086,1.336,0.381l1.873,3.232c0.255,0.439,0.139,1.002-0.271,1.305l-1.356,1.006   c0.063,0.401,0.094,0.801,0.094,1.191c0,0.376-0.035,0.766-0.107,1.191l1.366,1.002c0.418,0.306,0.533,0.881,0.265,1.324   L44.9,44.749c-0.277,0.46-0.866,0.617-1.34,0.356l-1.478-0.818c-0.706,0.52-1.487,0.888-2.083,1.124V47C40,47.552,39.553,48,39,48z    M36,46h2v-1.293c0-0.436,0.282-0.822,0.698-0.954c1.044-0.33,2.01-0.853,2.585-1.397c0.316-0.301,0.791-0.359,1.173-0.148   l1.231,0.684l0.982-1.625l-1.146-0.841c-0.323-0.237-0.475-0.646-0.381-1.036c0.129-0.548,0.188-0.988,0.188-1.39   c0-0.45-0.058-0.917-0.168-1.39c-0.093-0.389,0.056-0.795,0.377-1.033l1.146-0.85l-0.939-1.623l-1.305,0.695   c-0.379,0.201-0.846,0.139-1.158-0.156c-0.574-0.543-1.541-1.065-2.586-1.397C38.282,32.113,38,31.727,38,31.292V30h-2v1.295   c0,0.436-0.282,0.822-0.697,0.954c-0.787,0.249-1.522,0.705-2.25,1.396c-0.328,0.312-0.82,0.364-1.205,0.131l-1.026-0.619   l-0.962,1.703l1.146,0.654c0.386,0.221,0.58,0.67,0.478,1.103c-0.105,0.435-0.158,0.901-0.158,1.385   c0,0.442,0.057,0.897,0.173,1.39c0.101,0.43-0.091,0.875-0.474,1.096l-1.119,0.647l0.979,1.699l0.945-0.596   c0.386-0.242,0.888-0.194,1.22,0.118c0.745,0.703,1.462,1.147,2.255,1.398c0.416,0.133,0.698,0.518,0.698,0.954L36,46L36,46z"/><path d="M29,43H2c-0.553,0-1-0.448-1-1v-3.771c0-2.92,1.811-5.525,4.611-6.638c2.533-1.004,7.375-4.049,9.465-9.088l1.848,0.766   c-2.191,5.29-7.066,8.79-10.572,10.182C4.316,34.259,3,36.134,3,38.229V41h26V43L29,43z"/><path d="M33,33c-0.123,0-0.248-0.023-0.369-0.071c-3.553-1.409-5.46-4.61-7.555-9.661c-0.212-0.51,0.029-1.095,0.541-1.307   c0.508-0.21,1.095,0.03,1.307,0.541c2.202,5.313,3.889,7.553,6.445,8.566c0.513,0.205,0.764,0.785,0.561,1.299   C33.773,32.761,33.396,33,33,33z"/><path d="M21,26c-6.296,0-11-7.919-11-15c0-6.682,4.316-11,11-11s11,4.318,11,11C32,18.081,27.296,26,21,26z M21,2   c-4.352,0-9,2.364-9,9c0,5.888,4.016,13,9,13s9-7.112,9-13C30,4.364,25.352,2,21,2z"/></g></svg>
