<svg xmlns="http://www.w3.org/2000/svg" xmlns:xlink="http://www.w3.org/1999/xlink" version="1.1" x="0px" y="0px" viewBox="0 0 100 100" fill="#bf6161" enable-background="new 0 0 100 100" xml:space="preserve"><path d="M91,39.5V23c0-3.5-2.2-6-5.8-6.4c-0.6-0.1-1.1-0.1-1.7-0.2c-2.3-0.3-4.4-0.5-6.4-1c-7.5-1.7-14.7-5-22.7-10.6  C53.2,3.8,51.9,3,50.1,3c-1.9,0-3.1,0.9-4.4,1.7C35,12.1,25.4,15.8,15.4,16.4C12.5,16.5,9,17.8,9,23.2c0,3.3,0,6.6,0,9.9  c0,6.5,0,13.3,0,20c0,2.6,0.3,5.4,1,8.4c1.5,6.6,4.9,12.6,10.6,18.3c7,7.1,15.8,12.6,27,16.8c0.1,0,0.1,0,0.2,0.1  c0.7,0.2,1.5,0.4,2.2,0.4h0c1,0,2-0.2,2.9-0.6c0.9-0.4,1.8-0.8,2.8-1.2c2.3-1,4.8-2.1,7.2-3.3c8.9-4.7,15.7-10.3,20.8-17.2  c4.5-5.9,6.9-12.2,7.2-18.8c0.2-4.4,0.2-8.9,0.2-13.3C91,41.6,91,40.6,91,39.5z M81.9,55.6c-0.2,4.8-2,9.3-5.4,13.8  c-4.3,5.8-10.1,10.6-17.7,14.6c-2.2,1.1-4.5,2.1-6.7,3c-0.7,0.3-1.4,0.6-2.1,0.9c-9.5-3.7-17-8.4-22.9-14.3c-4.5-4.6-7.1-9.1-8.3-14  C18.2,57.1,18,55,18,53c-0.1-6.6,0-13.4,0-19.9c0-2.6,0-5.3,0-7.9c10.7-1,21-5.1,32.1-12.6c8.7,6,16.7,9.6,25.1,11.5  c2.3,0.5,4.7,0.8,6.9,1.1v14.3c0,1.1,0,2.2,0,3.3C82.1,47,82.1,51.3,81.9,55.6z M55,68.6c0.1,2.7-2.3,5-5,5c-2.8,0-5.1-2.3-5.1-5.1  s2.3-5.1,5.1-5.1C52.8,63.4,55.2,65.7,55,68.6z M54.7,30.5c0.3,0.8,0.5,1.6,0.5,2.5c-0.1,2.5-0.3,5.1-0.5,7.6  c-0.2,3.9-0.5,7.9-0.7,11.8c-0.1,1.3-0.1,2.4-0.1,3.7c-0.1,2.1-1.7,3.7-3.8,3.7s-3.7-1.5-3.8-3.6c-0.3-6.1-0.7-12.2-1-18.3  c-0.1-1.6-0.2-3.2-0.3-4.9c0-2.7,1.5-4.9,3.9-5.6C51.2,27,53.7,28.2,54.7,30.5z"/></svg>
