<?xml version="1.0" standalone="no"?>
<!DOCTYPE svg PUBLIC "-//W3C//DTD SVG 20010904//EN"
 "http://www.w3.org/TR/2001/REC-SVG-20010904/DTD/svg10.dtd">
<svg version="1.0" xmlns="http://www.w3.org/2000/svg"
 width="350.000000pt" height="350.000000pt" viewBox="0 0 350.000000 350.000000"
 preserveAspectRatio="xMidYMid meet">
<metadata>
Created by potrace 1.11, written by Peter Selinger 2001-2013
</metadata>
<g transform="translate(0.000000,350.000000) scale(0.100000,-0.100000)"
fill="#000000" stroke="none">
<path d="M1695 2459 c-75 -15 -165 -63 -215 -113 -37 -37 -47 -43 -63 -34 -47
25 -166 58 -244 69 -105 14 -229 0 -330 -36 -37 -13 -111 -39 -164 -58 -107
-39 -275 -77 -341 -77 -24 0 -49 -5 -56 -12 -8 -8 -12 -50 -12 -125 l0 -113
108 -147 c259 -355 508 -686 520 -690 34 -14 350 77 722 206 132 45 268 75
425 91 81 9 126 19 171 40 33 15 98 38 145 50 79 22 109 23 495 29 429 6 444
8 444 50 0 33 -60 118 -131 186 -41 38 -213 205 -382 370 l-309 300 -176 6
c-414 15 -559 17 -607 8z m855 -193 c63 -61 218 -212 345 -335 l230 -224 -120
7 c-66 4 -196 14 -288 22 -132 12 -188 13 -258 4 -148 -18 -271 -66 -317 -125
l-19 -24 -224 227 c-123 125 -265 272 -316 328 l-92 100 25 31 c31 40 81 71
152 94 52 17 87 18 412 12 l355 -6 115 -111z m-1280 15 c112 -33 126 -43 257
-186 70 -77 215 -229 323 -338 155 -158 189 -197 165 -191 -54 15 -236 9 -305
-9 -36 -10 -130 -49 -210 -87 -80 -38 -181 -79 -225 -90 -83 -21 -258 -44
-294 -38 -14 2 -112 127 -311 398 l-289 395 113 22 c62 12 158 39 212 59 55
19 123 44 151 55 29 10 77 23 105 29 76 13 232 4 308 -19z m-630 -626 c282
-383 283 -384 324 -390 37 -6 164 4 266 20 26 4 30 3 15 -3 -29 -14 -315 -86
-319 -81 -6 7 -194 262 -389 527 -142 192 -187 261 -187 283 0 16 2 29 4 29 2
0 131 -173 286 -385z m2110 0 c85 -7 218 -17 295 -21 220 -12 101 -23 -245
-22 -335 0 -432 -11 -584 -71 -37 -15 -41 -10 -16 22 43 54 199 105 330 106
36 0 135 -6 220 -14z m-805 -165 c17 -7 16 -9 -9 -9 -48 -1 -251 -50 -354 -85
-53 -19 -106 -37 -117 -40 -11 -4 23 15 75 43 52 27 115 57 140 66 84 28 226
42 265 25z"/>
<path d="M198 1939 c-23 -13 -23 -40 0 -70 11 -13 155 -220 322 -459 166 -239
303 -436 304 -436 0 -1 273 81 604 181 l604 184 31 -20 c20 -12 50 -19 81 -19
44 0 53 4 93 45 l45 45 517 30 c445 26 518 32 528 46 9 12 9 22 2 35 -13 24 2
25 -599 -10 l-495 -29 -38 -46 c-44 -51 -70 -58 -110 -26 -14 11 -36 20 -50
20 -13 0 -185 -49 -383 -109 -197 -60 -458 -139 -578 -176 -179 -54 -221 -64
-231 -53 -7 7 -140 198 -296 423 -271 394 -316 455 -328 455 -3 0 -14 -5 -23
-11z"/>
</g>
</svg>
